<svg width="69" height="80" fill="none" xmlns="http://www.w3.org/2000/svg"><path fill-rule="evenodd" clip-rule="evenodd" d="M58.794-.001c-2.68 0-5.25 1.077-7.147 2.992l-12.15 12.277a7.083 7.083 0 01-10.092 0L17.255 2.99a10.055 10.055 0 00-7.147-2.992C4.525-.001 0 4.572 0 10.212v51.18c0 .874.35 1.665.915 2.241a3.131 3.131 0 002.103.922c1.784.065 3.246-1.511 3.246-3.315V48.734c0-.873.35-1.665.914-2.24a3.134 3.134 0 012.104-.923c1.784-.064 3.245 1.512 3.245 3.316v3.012c0 .873.351 1.665.915 2.24a3.13 3.13 0 002.104.922c1.784.065 3.245-1.51 3.245-3.315v-8.708c0-.874.35-1.665.915-2.24a3.13 3.13 0 012.103-.922c1.785-.065 3.246 1.51 3.246 3.314v15.038c0 .874.351 1.665.915 2.24a3.13 3.13 0 002.103.923c1.785.064 3.246-1.512 3.246-3.316v-3.644c0-.874.35-1.665.915-2.241a3.132 3.132 0 012.103-.922c1.784-.065 3.246 1.512 3.246 3.315v13.772c0 .873.35 1.665.914 2.24a3.13 3.13 0 002.104.922c1.784.065 3.245-1.511 3.245-3.315V43.038c0-.874.352-1.665.916-2.24a3.127 3.127 0 012.103-.922c1.783-.065 3.245 1.51 3.245 3.314v18.835c0 .874.351 1.665.915 2.241a3.133 3.133 0 002.103.922c1.785.065 3.246-1.512 3.246-3.315v-6.177c0-.873.351-1.664.915-2.24a3.131 3.131 0 012.103-.922c1.784-.064 3.246 1.511 3.246 3.315v12.506c0 .873.35 1.665.914 2.24a3.13 3.13 0 002.104.922c1.784.065 3.245-1.511 3.245-3.315v-57.99C68.901 4.572 64.377 0 58.794 0z" fill="url(#paint0_linear)"/><path fill-rule="evenodd" clip-rule="evenodd" d="M37.583 76.583c0 1.748 1.402 3.165 3.132 3.165 1.73 0 3.131-1.417 3.131-3.165s-1.402-3.164-3.131-3.164c-1.73 0-3.132 1.416-3.132 3.164z" fill="url(#paint1_linear)"/><path fill-rule="evenodd" clip-rule="evenodd" d="M12.527 60.127c0 1.748 1.403 3.165 3.132 3.165 1.73 0 3.132-1.417 3.132-3.165s-1.402-3.164-3.132-3.164c-1.729 0-3.132 1.416-3.132 3.164z" fill="url(#paint2_linear)"/><path fill-rule="evenodd" clip-rule="evenodd" d="M14.094 66.456c0 .874.7 1.583 1.565 1.583s1.566-.709 1.566-1.583c0-.873-.7-1.581-1.566-1.581-.864 0-1.565.708-1.565 1.581z" fill="url(#paint3_linear)"/><path fill-rule="evenodd" clip-rule="evenodd" d="M51.363 69.153a1.89 1.89 0 001.88 1.899 1.89 1.89 0 001.878-1.899 1.89 1.89 0 00-1.879-1.899c-1.038 0-1.879.85-1.879 1.9z" fill="url(#paint4_linear)"/><defs><linearGradient id="paint0_linear" x1="77.027" y1="-.001" x2="-16.948" y2="61.117" gradientUnits="userSpaceOnUse"><stop stop-color="#F0F"/><stop offset="1" stop-color="#0FF"/></linearGradient><linearGradient id="paint1_linear" x1="65.882" y1="1.755" x2="-15.423" y2="72.581" gradientUnits="userSpaceOnUse"><stop stop-color="#F0F"/><stop offset="1" stop-color="#0FF"/></linearGradient><linearGradient id="paint2_linear" x1="66.185" y1="2.862" x2="-9.115" y2="68.328" gradientUnits="userSpaceOnUse"><stop stop-color="#F0F"/><stop offset="1" stop-color="#0FF"/></linearGradient><linearGradient id="paint3_linear" x1="65.88" y1="1.867" x2="-5.931" y2="67.295" gradientUnits="userSpaceOnUse"><stop stop-color="#F0F"/><stop offset="1" stop-color="#0FF"/></linearGradient><linearGradient id="paint4_linear" x1="66.796" y1="3.148" x2="-11.716" y2="71.541" gradientUnits="userSpaceOnUse"><stop stop-color="#F0F"/><stop offset="1" stop-color="#0FF"/></linearGradient></defs></svg>